<?xml version="1.0" standalone="no"?>
<!DOCTYPE svg PUBLIC "-//W3C//DTD SVG 20010904//EN"
 "http://www.w3.org/TR/2001/REC-SVG-20010904/DTD/svg10.dtd">
<svg version="1.0" xmlns="http://www.w3.org/2000/svg"
 width="612.000000pt" height="432.000000pt" viewBox="0 0 612.000000 432.000000"
 preserveAspectRatio="xMidYMid meet">

<g transform="translate(0.000000,432.000000) scale(0.100000,-0.100000)"
fill="#000000" stroke="none">
<path d="M0 4150 c0 -170 0 -170 23 -170 48 0 67 -11 67 -39 0 -26 -67 -173
-82 -179 -13 -6 -10 -152 3 -150 16 4 38 -94 39 -168 0 -34 7 -81 15 -104 8
-23 15 -68 15 -100 0 -63 -11 -75 -56 -64 l-24 6 0 -141 c0 -79 4 -141 9 -141
15 0 51 65 51 93 0 14 4 28 9 31 4 3 6 17 3 31 -2 14 0 25 6 25 6 0 11 -12 11
-27 0 -73 10 -156 20 -166 14 -14 110 -11 128 5 37 30 54 70 59 135 5 66 4 69
-26 101 -19 18 -43 32 -56 32 -13 0 -34 5 -47 12 -12 6 -29 14 -37 18 -21 10
-24 34 -6 72 23 51 34 107 34 173 0 78 31 235 51 258 14 17 14 20 -3 32 -23
17 -47 142 -32 174 5 11 32 32 60 45 83 39 90 52 77 135 -9 60 -8 79 6 126 21
68 42 84 70 52 36 -39 58 -140 32 -149 -5 -2 -14 -29 -18 -61 -7 -54 -6 -60
18 -86 35 -39 94 -48 131 -21 30 21 57 79 70 150 5 25 13 65 19 90 5 25 10 50
11 55 2 6 2 27 1 48 l-1 37 -255 0 -255 0 0 -37 c0 -41 -19 -87 -35 -84 -16 2
-28 64 -16 83 19 31 12 38 -39 38 l-50 0 0 -170z"/>
<path d="M2219 4283 c-5 -325 -6 -545 -2 -575 7 -46 23 -50 23 -7 0 22 5 32
20 36 11 3 20 10 20 15 0 5 4 7 9 4 5 -4 11 -3 13 1 1 5 22 21 46 37 23 16 42
33 42 37 0 5 9 9 19 9 11 0 32 7 48 15 15 8 46 22 68 32 37 16 38 18 15 23
-21 5 -22 7 -7 13 9 3 24 4 32 1 9 -4 15 0 15 10 0 9 7 16 15 16 18 0 21 46 3
53 -9 4 -8 6 3 6 8 1 20 -4 26 -10 16 -16 51 5 55 33 2 16 13 26 36 33 28 8
32 13 27 32 -4 17 -1 23 11 23 10 0 14 5 10 15 -3 10 1 15 12 16 11 0 12 2 4
6 -12 5 -7 71 7 83 3 3 22 22 40 43 l35 37 -322 0 -322 0 -1 -37z"/>
<path d="M2880 4295 c0 -25 14 -33 25 -15 3 6 1 10 -6 10 -8 0 -8 4 1 15 10
12 10 15 -4 15 -10 0 -16 -9 -16 -25z"/>
<path d="M3090 4270 c0 -40 -4 -50 -20 -55 -11 -4 -18 -11 -15 -16 9 -14 35
-11 52 7 12 12 18 13 27 3 8 -8 8 -13 -1 -16 -7 -3 -13 -13 -13 -23 0 -10 -3
-20 -7 -23 -5 -2 -1 -1 7 1 8 3 25 5 38 4 12 -1 38 -3 57 -4 33 -2 49 -22 23
-30 -7 -3 -8 -10 -4 -17 8 -13 39 -11 79 4 12 5 17 2 17 -8 0 -9 -8 -21 -17
-27 -16 -10 -16 -11 2 -4 31 11 95 13 95 3 0 -14 38 -11 44 4 5 9 7 9 12 0 3
-8 12 -5 26 9 l20 20 34 -47 c18 -26 31 -52 27 -58 -4 -6 0 -8 10 -4 12 4 14
2 10 -11 -6 -15 -4 -15 14 1 11 10 28 39 37 65 10 26 21 55 27 64 5 10 9 24 9
32 0 8 6 16 13 19 15 6 10 -74 -5 -84 -5 -3 8 -9 30 -13 35 -5 41 -10 47 -36
4 -16 3 -35 0 -41 -9 -13 -13 -99 -5 -99 3 0 11 -13 17 -30 6 -16 18 -30 27
-30 12 0 13 -5 5 -30 -9 -25 -7 -34 10 -56 12 -15 21 -32 21 -38 0 -7 14 -27
31 -44 19 -19 26 -32 17 -32 -12 0 -14 -12 -9 -63 1 -5 5 -6 10 -2 6 3 15 -3
21 -12 11 -17 11 -17 6 0 -3 10 -6 21 -6 23 0 2 -8 4 -17 4 -14 0 -15 2 -5 9
9 5 22 1 37 -13 21 -20 23 -27 15 -62 -8 -31 -6 -41 6 -51 9 -7 11 -13 5 -17
-12 -8 19 -45 32 -39 10 6 9 -39 -2 -57 -6 -8 -7 -18 -4 -24 4 -5 10 -1 14 10
7 17 8 17 8 2 1 -10 5 -18 11 -18 18 0 70 -88 70 -119 0 -42 41 -81 85 -81 34
0 35 -1 35 -40 0 -22 -4 -40 -10 -40 -5 0 -10 -22 -10 -48 0 -39 5 -53 26 -72
21 -21 26 -22 34 -10 8 13 12 12 27 -4 13 -13 15 -20 6 -23 -19 -7 -17 -83 1
-83 11 0 16 -15 18 -52 2 -30 8 -53 16 -56 6 -2 12 3 12 12 0 9 5 16 10 16 6
0 10 -18 10 -40 0 -22 5 -40 10 -40 6 0 10 -18 10 -40 0 -22 -4 -40 -10 -40
-5 0 -10 -18 -10 -40 l0 -40 45 0 c37 0 50 -5 73 -30 22 -23 38 -30 66 -30 20
0 36 5 36 10 0 6 18 10 40 10 22 0 40 -5 40 -10 0 -13 233 -1 242 13 4 7 37 7
102 -1 52 -7 123 -12 156 -12 34 0 74 -6 88 -14 15 -8 44 -21 65 -28 35 -13
37 -16 23 -29 -35 -32 -44 -37 -82 -42 -21 -3 -74 -12 -116 -21 -43 -8 -117
-17 -165 -21 -285 -18 -387 -26 -394 -31 -4 -2 -56 -7 -116 -10 -59 -3 -144
-10 -188 -15 -44 -5 -123 -14 -175 -19 -219 -23 -223 -27 -210 -225 11 -159
12 -301 3 -375 -6 -49 -8 -52 -14 -25 -6 27 -7 26 -8 -13 0 -23 2 -41 7 -41
19 3 32 -2 32 -13 0 -26 59 -40 240 -59 102 -11 217 -23 256 -28 40 -5 152
-17 250 -26 99 -8 223 -22 277 -31 54 -8 123 -17 155 -19 71 -6 258 -34 292
-44 33 -9 53 -51 41 -84 -12 -31 -57 -43 -103 -28 -18 5 -82 15 -143 21 -60 6
-162 19 -225 30 -99 16 -218 30 -385 46 -22 2 -76 8 -120 14 -44 6 -170 15
-280 19 -262 11 -274 7 -266 -92 2 -26 0 -28 -21 -22 -63 20 -99 75 -77 117
14 27 10 63 -10 86 -18 22 -17 49 4 118 4 14 0 32 -10 48 -12 18 -14 30 -8 39
13 15 15 124 4 146 -9 15 7 102 21 116 9 9 0 112 -13 153 -7 20 -20 48 -30 61
-11 13 -19 32 -19 42 0 10 -4 20 -8 23 -6 4 1 109 12 181 7 44 19 75 28 75 6
0 7 7 4 16 -3 8 -2 12 4 9 6 -3 10 0 10 8 0 8 9 22 19 31 10 10 24 38 30 63 7
25 18 52 26 60 8 8 15 28 15 45 0 16 7 42 14 56 34 63 50 108 48 137 -2 17 4
44 12 60 9 17 16 53 16 82 0 28 4 63 10 77 9 25 -1 73 -18 86 -4 3 -12 17 -19
31 -9 21 -8 27 6 36 15 10 15 15 -2 74 -10 35 -17 87 -17 116 1 43 -2 52 -20
58 -11 3 -20 10 -20 14 0 5 -7 24 -15 43 -12 30 -18 35 -40 30 -17 -3 -30 -15
-40 -38 -14 -34 -30 -49 -18 -17 5 12 2 15 -9 10 -12 -4 -17 3 -22 25 -3 17
-2 36 2 42 15 18 23 48 12 41 -6 -3 -10 -2 -10 4 0 5 -10 8 -22 6 -30 -6 -57
20 -50 48 3 12 16 35 29 50 25 30 29 47 13 47 -5 0 -10 -6 -10 -12 0 -8 -3 -9
-8 -3 -16 22 -35 16 -30 -10 7 -35 -29 -35 -38 1 -4 17 -11 23 -21 20 -8 -3
-22 -6 -31 -6 -12 -1 -9 -7 13 -25 23 -19 26 -25 13 -25 -10 0 -18 -4 -18 -10
0 -5 5 -10 11 -10 5 0 7 -4 4 -10 -11 -17 26 -71 56 -82 16 -5 29 -14 29 -18
0 -9 -33 -6 -50 5 -6 3 -10 1 -10 -4 0 -6 6 -11 14 -11 16 0 26 -43 26 -111 0
-27 4 -49 9 -49 11 0 24 -48 16 -60 -9 -14 -31 -1 -33 18 -2 9 -3 50 -5 89 -1
40 -6 72 -10 72 -5 -1 -21 10 -35 24 -29 27 -110 60 -125 50 -5 -3 -7 8 -5 23
2 23 9 30 31 32 33 4 37 39 7 65 -18 15 -24 14 -21 -5 1 -9 -55 -10 -86 -2
-21 6 -40 55 -20 51 6 -1 13 7 15 18 2 11 1 17 -3 13 -5 -4 -14 -3 -22 4 -10
8 -17 8 -25 0 -7 -7 -23 -12 -36 -12 -13 0 -33 -5 -44 -11 -19 -10 -20 -9 -14
17 4 16 20 42 37 57 21 19 29 35 26 50 -4 20 -4 20 -6 -3 -1 -20 -3 -22 -11
-10 -8 13 -10 12 -10 -3 0 -10 -4 -16 -9 -12 -5 3 -12 -4 -16 -15 -3 -11 -11
-20 -16 -20 -6 0 -8 4 -5 9 8 13 -4 42 -14 36 -5 -3 -12 0 -17 7 -5 9 -9 3
-13 -17 -3 -18 -11 -30 -20 -30 -23 0 -19 88 5 115 10 11 13 20 7 20 -6 0 -14
-5 -18 -11 -4 -8 -9 -7 -15 2 -8 11 -11 11 -19 -3 -10 -16 -12 -16 -39 -1 -18
11 -27 23 -24 33 5 20 -33 35 -41 16 -3 -7 -5 -7 -5 2 -1 7 -5 11 -11 7 -5 -3
-7 -12 -3 -21 4 -12 0 -14 -23 -9 -22 5 -25 4 -14 -4 13 -9 12 -11 -3 -11 -10
0 -16 -4 -13 -9 10 -15 -29 -19 -43 -4 -7 8 -26 16 -42 20 -16 3 -29 9 -29 13
0 5 -8 7 -17 5 -10 -1 -17 -8 -15 -14 1 -6 -5 -11 -13 -11 -8 0 -15 -5 -15
-11 0 -7 7 -8 18 -4 38 15 75 18 68 7 -4 -7 -2 -12 4 -12 6 0 8 -4 5 -10 -3
-5 12 -12 34 -16 22 -4 46 -13 52 -20 9 -11 15 -12 28 -2 13 10 14 10 4 -2
-19 -21 1 -46 56 -71 l49 -23 -24 -19 c-13 -10 -21 -24 -17 -30 4 -6 0 -8 -11
-4 -9 4 -24 -1 -35 -11 -34 -32 -59 -43 -65 -27 -3 8 -12 12 -20 9 -12 -4 -9
-12 15 -35 16 -15 29 -33 29 -40 0 -6 10 -24 23 -39 21 -24 26 -26 46 -16 12
7 19 15 15 19 -13 13 -11 78 3 95 8 9 12 12 9 5 -3 -6 -3 -19 0 -28 6 -13 9
-14 16 -3 7 9 8 8 4 -5 -3 -10 -6 -23 -6 -28 0 -6 -4 -7 -10 -4 -25 15 -6 -13
23 -34 17 -13 24 -21 15 -18 -13 5 -18 1 -18 -11 0 -9 -10 -22 -22 -27 -17 -7
-23 -19 -24 -43 -1 -27 4 -36 28 -48 17 -9 28 -10 28 -4 0 7 6 6 14 -2 8 -7
10 -14 5 -16 -13 -5 -11 -29 4 -44 8 -7 11 -23 7 -37 -5 -22 -7 -23 -22 -8 -9
10 -24 17 -33 17 -8 0 -20 11 -25 24 -10 26 -38 46 -65 46 -9 0 -13 -4 -10
-10 9 -14 -19 -12 -33 2 -14 14 -16 32 -2 23 5 -3 20 3 32 15 12 11 29 18 39
15 10 -3 20 -1 24 5 3 5 1 10 -4 10 -6 0 -11 5 -11 10 0 34 -104 85 -120 59
-7 -10 -14 -10 -35 -1 -15 7 -30 10 -34 8 -4 -3 -8 9 -9 25 -2 23 4 33 30 49
18 11 42 20 53 20 17 0 16 3 -7 18 -16 9 -28 20 -28 24 0 5 -5 8 -10 8 -7 0
-7 -7 0 -21 10 -19 10 -20 -9 -10 -28 15 -56 14 -71 -4 -14 -17 -60 -20 -60
-4 0 5 6 7 13 4 6 -4 4 0 -5 8 -10 8 -18 19 -18 26 0 20 -16 12 -28 -14 -7
-14 -13 -40 -13 -58 -1 -21 -3 -25 -6 -12 -3 11 -10 25 -15 30 -7 7 -8 1 -4
-18 l7 -29 -25 19 c-16 11 -25 28 -26 46 0 15 -4 27 -9 27 -5 0 -7 -9 -4 -20
6 -23 6 -23 -34 -10 -20 7 -38 8 -56 1 -20 -8 -30 -7 -42 5 -8 9 -15 11 -15 5
0 -6 -8 -11 -17 -12 -11 0 -13 -3 -5 -6 24 -10 11 -23 -24 -23 -21 0 -33 -4
-29 -10 3 -5 15 -10 26 -10 10 0 19 -6 19 -12 0 -29 -29 -103 -38 -101 -6 2
-14 -6 -17 -17 -4 -11 -11 -20 -16 -20 -5 0 -9 -15 -9 -34 0 -41 28 -59 38
-24 6 23 6 23 13 -2 6 -22 7 -21 8 10 1 31 2 33 17 19 13 -13 14 -27 6 -83 -9
-68 2 -107 26 -92 6 3 19 -4 29 -17 10 -13 30 -31 46 -41 26 -17 26 -19 10
-32 -10 -7 -14 -14 -8 -14 5 0 -1 -8 -15 -17 -17 -12 -25 -13 -28 -5 -5 17
-22 15 -22 -3 0 -8 6 -15 13 -15 8 0 9 -2 1 -8 -6 -4 -10 -20 -9 -37 3 -42 4
-45 16 -45 5 0 7 5 4 10 -3 6 -1 10 4 10 6 0 11 7 11 15 0 9 10 19 22 24 18 7
25 2 43 -33 l22 -41 -40 -5 c-38 -5 -41 -7 -44 -40 -2 -27 0 -30 6 -15 7 16 9
12 8 -16 -2 -26 -6 -35 -16 -31 -10 4 -12 -1 -6 -19 l7 -24 -18 25 c-10 13
-18 39 -18 57 0 21 -4 32 -11 29 -6 -2 -27 15 -46 37 -19 23 -49 57 -66 76
-32 33 -44 71 -22 71 6 0 9 -6 6 -14 -6 -15 15 -15 47 -1 13 6 21 5 24 -3 7
-22 22 -13 22 13 0 17 -5 25 -17 25 -16 0 -16 -2 -3 -11 11 -7 -3 -8 -47 -4
-61 7 -63 6 -64 -17 0 -21 -1 -22 -8 -3 -5 11 -4 22 0 23 5 2 9 8 9 14 0 6 -7
8 -15 4 -11 -4 -15 1 -15 17 0 12 -4 18 -8 12 -4 -5 -14 -10 -22 -10 -11 0
-14 -9 -12 -35 2 -19 8 -36 13 -38 5 -2 9 -8 9 -13 0 -6 -4 -7 -10 -4 -5 3
-10 -2 -10 -12 0 -13 -3 -14 -8 -5 -14 21 -1 -111 14 -145 18 -41 18 -46 -5
-40 -16 4 -18 1 -12 -22 10 -37 2 -71 -16 -71 -11 0 -14 -6 -8 -22 13 -43 24
-133 16 -138 -16 -11 -22 -44 -9 -52 11 -6 10 -10 0 -17 -11 -7 -11 -9 2 -14
21 -8 20 -34 -1 -45 -15 -9 -15 -17 -4 -78 17 -94 41 -145 63 -133 11 6 19 6
23 -1 3 -5 1 -10 -6 -10 -15 0 -4 -86 18 -141 14 -36 14 -41 -1 -64 -21 -32
-32 -136 -17 -161 9 -16 10 -12 5 21 -3 22 -1 58 3 80 7 33 13 40 33 40 22 0
26 -6 33 -45 9 -48 -3 -100 -24 -100 -6 0 -9 7 -6 14 4 10 1 13 -8 10 -8 -4
-15 -33 -20 -87 -4 -45 -13 -92 -21 -104 -14 -22 -20 -133 -7 -119 7 7 8 12
11 76 2 28 6 36 22 36 18 0 20 -7 20 -57 0 -76 -16 -119 -43 -119 -37 0 -52
17 -17 18 32 1 48 8 38 17 -13 13 -112 -19 -150 -49 -56 -42 -79 -84 -85 -154
-4 -45 0 -67 18 -107 12 -27 21 -54 20 -58 -1 -5 3 -6 9 -2 7 4 8 11 2 18 -21
25 -41 116 -32 144 4 15 9 22 9 16 1 -7 13 -13 29 -13 15 0 43 -10 62 -22 69
-43 106 -60 185 -84 99 -30 106 -26 113 78 4 61 1 81 -16 114 -21 41 -68 88
-111 110 -14 8 -20 14 -13 14 24 0 76 -32 113 -71 60 -62 74 -165 34 -242 -15
-29 -2 -39 13 -10 8 13 26 17 76 19 72 3 86 8 86 30 0 8 -11 15 -27 15 -24 2
-25 2 -5 6 18 4 22 11 22 40 0 20 -5 51 -12 69 -9 25 -9 42 0 70 8 26 8 43 1
56 -6 11 -7 32 -4 48 5 24 9 27 20 17 8 -8 10 -18 4 -29 -14 -26 -11 -38 12
-38 11 0 17 -4 14 -10 -3 -5 -1 -10 5 -10 6 0 -1 -20 -15 -43 -35 -61 -34 -81
5 -73 22 4 30 2 30 -9 0 -8 -6 -18 -14 -22 -8 -4 -16 -21 -18 -38 -3 -26 0
-30 19 -27 40 6 39 -33 -4 -83 l-38 -44 -9 24 c-6 14 -17 26 -25 26 -56 5 -80
3 -110 -8 -19 -8 -36 -11 -38 -9 -3 3 -19 -11 -35 -30 -39 -44 -72 -61 -135
-70 -55 -7 -110 6 -155 38 -15 10 -29 14 -32 9 -9 -15 55 -49 120 -65 32 -8
51 -15 42 -15 -10 -1 -18 -4 -18 -9 0 -4 -10 -12 -22 -17 -13 -6 -27 -20 -33
-32 -7 -17 -15 -21 -40 -17 -29 5 -29 5 -10 -10 48 -39 55 -47 55 -67 0 -11 5
-30 11 -41 l12 -21 -37 21 c-53 31 -56 27 -8 -14 60 -51 102 -160 102 -264 0
-41 -22 -57 -34 -25 -3 8 -10 15 -16 15 -6 0 -27 7 -48 17 -20 9 -48 18 -62
19 -90 11 -127 11 -147 -2 -12 -8 -29 -14 -38 -14 -9 0 -14 -4 -11 -9 3 -5
-10 -22 -29 -38 -19 -17 -35 -35 -35 -42 0 -6 -7 -11 -15 -11 -8 0 -15 -7 -15
-15 0 -8 -4 -15 -9 -15 -5 0 -11 -10 -14 -21 -4 -15 -11 -20 -21 -16 -9 4 -16
2 -16 -2 0 -5 5 -11 12 -13 15 -5 -30 -68 -49 -68 -7 0 -13 -4 -13 -10 0 -5
-5 -10 -11 -10 -5 0 -8 4 -4 9 3 5 1 12 -5 16 -5 3 -10 0 -10 -8 0 -9 -11 -14
-31 -14 -18 0 -37 -6 -43 -15 -15 -20 -37 -27 -62 -17 -17 6 -20 3 -20 -14 1
-18 -5 -22 -29 -22 -36 0 -58 -13 -52 -29 3 -7 1 -19 -3 -26 -7 -11 -14 -12
-35 -2 -23 11 -26 10 -23 -5 4 -19 -31 -43 -63 -43 -11 0 -19 -6 -19 -13 0 -8
-15 -22 -34 -32 -19 -11 -34 -24 -33 -29 1 -6 -9 -11 -23 -11 -14 0 -34 -5
-44 -11 -19 -12 -19 -12 -1 -40 10 -16 36 -50 58 -77 l40 -47 664 0 c590 0
666 2 688 16 22 14 27 14 56 0 42 -21 305 -24 312 -3 4 9 7 9 18 -1 7 -6 24
-12 38 -12 23 0 23 1 8 18 -22 24 -21 35 2 56 22 20 30 12 41 -38 l6 -31 651
-3 651 -2 0 26 c0 14 3 29 8 33 5 3 10 13 12 21 2 8 8 16 13 18 5 2 9 10 9 18
0 8 5 14 11 14 6 0 9 6 6 13 -6 20 24 36 50 26 27 -10 29 -6 7 16 -9 9 -13 19
-10 23 4 3 11 1 15 -6 4 -7 15 -10 24 -6 13 5 16 2 10 -12 -4 -12 -3 -15 6 -9
10 5 11 3 4 -11 -10 -22 -10 -45 -1 -60 4 -6 -6 -26 -22 -44 -54 -61 -54 -61
197 -58 l227 3 -2 60 c-1 33 3 85 10 115 14 57 16 126 4 137 -10 10 -51 11
-57 0 -4 -5 -12 -6 -19 -2 -9 6 -9 9 1 16 7 4 10 11 6 16 -4 4 -17 2 -27 -5
-11 -7 -25 -12 -32 -12 -7 0 -5 5 5 11 18 10 18 12 -2 25 -11 8 -18 21 -15 29
4 8 1 15 -5 15 -6 0 -8 7 -5 15 4 10 0 15 -12 15 -16 0 -17 2 -4 10 13 9 13
11 0 20 -13 9 -13 10 0 10 10 0 11 3 4 8 -6 4 -14 20 -18 35 -11 44 -52 77
-97 77 -21 0 -41 5 -45 11 -4 8 -9 7 -15 -2 -5 -8 -18 -14 -30 -14 -26 0 -83
50 -74 65 3 5 -1 13 -9 16 -9 3 -16 11 -16 16 0 15 -32 81 -46 95 -7 7 -17 13
-22 13 -5 0 -15 7 -22 15 -15 18 -60 16 -60 -2 0 -7 -3 -12 -7 -12 -22 4 -33
-3 -33 -18 -1 -31 -24 8 -46 76 -21 66 -30 75 -40 36 -7 -28 -24 -34 -24 -8 0
14 -3 13 -16 -6 -13 -18 -19 -20 -24 -10 -8 15 10 143 22 154 15 15 -13 43
-48 49 -20 4 -39 5 -42 2 -3 -3 11 -22 31 -41 36 -35 51 -59 22 -35 -10 9 -15
9 -15 1 0 -6 -7 -11 -15 -11 -9 0 -12 6 -8 16 5 14 3 14 -15 3 -12 -7 -22 -11
-24 -9 -2 3 -13 19 -26 37 -24 35 -28 48 -12 38 6 -3 10 1 10 9 0 18 16 21 23
6 3 -6 4 -5 3 2 -1 7 -13 14 -25 14 -13 1 -26 6 -30 11 -3 6 -19 18 -36 27
l-30 17 54 -5 c29 -3 59 -10 67 -17 7 -6 18 -8 24 -4 6 4 17 2 24 -4 9 -8 30
-8 72 0 66 13 184 6 211 -11 17 -11 17 -11 0 -6 -11 3 -15 2 -12 -4 3 -6 18
-10 33 -11 15 0 21 -3 15 -6 -25 -10 -13 -25 15 -19 16 4 22 3 14 -2 -10 -7
-10 -11 2 -21 8 -7 20 -10 25 -7 6 4 22 4 36 0 18 -4 23 -9 15 -14 -8 -5 4
-19 36 -41 41 -28 137 -102 154 -119 3 -3 34 -30 70 -60 36 -30 67 -57 70 -60
3 -3 32 -28 65 -54 65 -52 188 -168 208 -196 25 -35 145 -167 218 -241 62 -62
157 -145 282 -245 14 -11 63 -14 242 -14 l225 0 0 2160 0 2160 -1178 0 -1178
0 -30 -70 -29 -70 -42 0 c-48 0 -56 15 -24 44 34 31 33 62 -1 57 -4 0 -10 8
-13 19 -6 20 -14 21 -271 19 l-264 -1 0 -48z m45 21 c3 -5 1 -12 -5 -16 -5 -3
-10 1 -10 9 0 18 6 21 15 7z m-75 -401 c0 -11 -7 -20 -15 -20 -8 0 -15 9 -15
20 0 11 7 20 15 20 8 0 15 -9 15 -20z m80 -109 c0 -18 -18 -21 -30 -6 -10 13
-9 15 9 15 11 0 21 -4 21 -9z m-17 -78 c14 -31 14 -33 -1 -33 -12 0 -18 10
-20 37 -3 41 -1 41 21 -4z m290 -32 c14 -28 14 -30 -7 -33 -13 -2 -20 -10 -20
-21 1 -10 -3 -16 -10 -14 -20 6 -19 67 1 83 10 7 19 14 20 14 1 0 8 -13 16
-29z m-842 -28 c13 -16 12 -17 -3 -4 -17 13 -22 21 -14 21 2 0 10 -8 17 -17z
m169 -54 c0 -13 -28 -11 -32 3 -3 7 -10 8 -17 4 -9 -6 -10 -11 -2 -19 17 -17
13 -31 -4 -17 -19 16 -19 26 3 55 l17 24 18 -20 c9 -12 17 -25 17 -30z m754
-71 c-3 -4 -11 -8 -19 -8 -7 0 -17 -9 -20 -20 -6 -18 -8 -18 -21 -5 -17 17
-15 50 3 50 6 0 14 3 18 7 9 9 45 -13 39 -24z m-660 5 c4 -9 2 -21 -4 -27 -7
-7 -10 -7 -10 1 0 6 -3 18 -6 27 -3 9 -2 16 4 16 5 0 13 -8 16 -17z m-31 -18
c-3 -8 -9 -15 -14 -15 -4 0 -6 -6 -3 -14 3 -7 -1 -16 -9 -19 -10 -4 -14 3 -14
24 0 17 6 29 14 29 7 0 13 5 13 11 0 5 4 8 10 4 5 -3 7 -12 3 -20z m157 -25
c0 -5 -4 -10 -9 -10 -6 0 -13 5 -16 10 -3 6 1 10 9 10 9 0 16 -4 16 -10z m904
-62 c-4 -6 -10 -5 -15 3 -14 22 -10 33 6 19 8 -7 12 -17 9 -22z m30 -63 c3 -8
1 -15 -4 -15 -6 0 -10 7 -10 15 0 8 2 15 4 15 2 0 6 -7 10 -15z m-1017 -55 c1
-28 0 -31 -7 -15 -9 19 -9 19 -16 -2 -3 -13 -10 -20 -15 -17 -5 3 -9 -6 -9
-20 0 -14 4 -27 9 -30 5 -3 7 -16 4 -27 -6 -21 -7 -21 -20 -4 -21 29 -16 100
9 139 26 39 42 31 45 -24z m1028 -21 c0 -9 -11 -14 -32 -14 -31 0 -37 9 -18
31 13 15 50 2 50 -17z m-854 9 c17 -10 23 -10 26 0 7 19 21 14 54 -19 51 -53
60 -109 17 -109 -12 0 -19 6 -17 18 3 26 -11 51 -27 45 -8 -3 -18 5 -26 21 -6
15 -17 25 -24 22 -12 -5 -34 12 -34 26 0 11 7 10 31 -4z m376 -10 c-3 -8 -6
-5 -6 6 -1 11 2 17 5 13 3 -3 4 -12 1 -19z m350 -62 c-20 -39 -25 -43 -30 -26
-3 11 -2 20 3 20 4 0 11 12 15 27 4 16 12 34 18 42 24 28 19 -16 -6 -63z m-70
8 c-3 -3 -12 -4 -19 -1 -8 3 -5 6 6 6 11 1 17 -2 13 -5z m109 -28 c-3 -22 -27
-46 -45 -46 -14 1 -14 2 2 11 9 5 17 19 17 29 0 11 6 20 14 20 8 0 13 -6 12
-14z m-383 -43 c-7 -2 -19 -2 -25 0 -7 3 -2 5 12 5 14 0 19 -2 13 -5z m-543
-130 l-7 -28 -12 28 c-14 36 -14 46 1 88 l12 34 7 -47 c4 -26 4 -60 -1 -75z
m199 22 c0 -5 -4 -3 -9 5 -5 8 -9 22 -9 30 0 16 17 -16 18 -35z m91 14 c0 -6
-4 -7 -10 -4 -5 3 -10 11 -10 16 0 6 5 7 10 4 6 -3 10 -11 10 -16z m-586 -75
c9 -3 16 -14 16 -24 0 -19 24 -42 55 -55 18 -7 19 -8 2 -12 -10 -3 -23 0 -30
5 -7 6 -29 13 -50 17 -43 8 -54 20 -37 40 7 8 9 15 4 15 -5 0 -2 5 6 10 18 12
15 11 34 4z m82 -15 c3 -5 1 -9 -5 -9 -17 0 -41 12 -41 20 0 10 38 1 46 -11z
m754 -54 c-7 -9 -15 -13 -17 -11 -7 7 7 26 19 26 6 0 6 -6 -2 -15z m-827 -42
c-19 -15 -47 -17 -39 -4 4 5 1 11 -6 13 -6 2 -8 9 -5 15 5 8 15 8 37 0 28 -11
29 -13 13 -24z m516 -60 c15 -29 14 -38 -2 -21 -23 24 -47 62 -47 77 0 15 29
-18 49 -56z m307 38 c-10 -16 -36 -13 -36 3 0 17 21 27 34 16 4 -5 5 -13 2
-19z m-879 -33 c-3 -8 -6 -5 -6 6 -1 11 2 17 5 13 3 -3 4 -12 1 -19z m73 14
c0 -4 -5 -13 -12 -20 -18 -18 -28 -15 -28 8 0 13 7 20 20 20 11 0 20 -4 20 -8z
m95 -32 c10 -11 14 -20 8 -20 -5 0 -18 9 -28 20 -10 11 -14 20 -8 20 5 0 18
-9 28 -20z m-145 -28 c0 -15 -2 -15 -10 -2 -13 20 -13 33 0 25 6 -3 10 -14 10
-23z m110 -2 c16 -23 18 -30 7 -30 -23 0 -61 35 -53 48 11 19 23 14 46 -18z
m-53 -52 c-3 -8 -6 -5 -6 6 -1 11 2 17 5 13 3 -3 4 -12 1 -19z m4 -23 c9 6 11
3 6 -9 -4 -10 -7 -24 -7 -32 0 -24 -28 -15 -34 11 -8 30 2 54 14 35 5 -7 13
-9 21 -5z m479 -21 c0 -8 -4 -12 -10 -9 -5 3 -10 13 -10 21 0 8 5 12 10 9 6
-3 10 -13 10 -21z m-319 -6 c11 -11 19 -22 19 -23 0 -1 -15 3 -34 9 -21 6 -32
15 -29 23 7 19 23 16 44 -9z m-48 -40 c4 -12 -1 -18 -13 -18 -10 0 -20 8 -22
18 -4 12 1 18 13 18 10 0 20 -8 22 -18z m47 7 c20 -24 6 -28 -15 -5 -10 11
-13 20 -8 20 6 0 16 -7 23 -15z m747 -37 c-2 -13 -4 -5 -4 17 -1 22 1 32 4 23
2 -10 2 -28 0 -40z m-687 7 c7 -9 8 -15 2 -15 -5 0 -12 7 -16 15 -3 8 -4 15
-2 15 2 0 9 -7 16 -15z m610 -31 c13 -24 12 -27 -10 -44 -14 -10 -25 -18 -26
-17 -4 8 10 87 15 87 4 0 14 -12 21 -26z m-763 10 c-3 -3 -12 -4 -19 -1 -8 3
-5 6 6 6 11 1 17 -2 13 -5z m260 -26 c-3 -8 -6 -5 -6 6 -1 11 2 17 5 13 3 -3
4 -12 1 -19z m723 -8 c-24 -15 -31 -11 -18 10 9 13 16 16 23 9 7 -7 5 -13 -5
-19z m-1004 8 c5 -7 3 -8 -6 -3 -10 6 -12 4 -7 -8 3 -10 2 -17 -3 -17 -11 0
-13 23 -3 33 9 9 11 9 19 -5z m-406 -67 c14 -51 13 -61 -9 -61 -16 0 -20 9
-23 59 -2 46 0 57 9 49 7 -6 17 -27 23 -47z m494 3 c5 -14 4 -15 -9 -4 -17 14
-19 20 -6 20 5 0 12 -7 15 -16z m845 -27 c-29 -55 -67 -76 -65 -34 2 30 14 47
40 57 29 11 38 3 25 -23z m-1358 -80 c-13 -13 -26 -3 -16 12 3 6 11 8 17 5 6
-4 6 -10 -1 -17z m409 -48 c-7 -12 -10 -36 -7 -54 6 -37 -6 -67 -17 -40 -10
28 -7 64 10 96 8 17 18 29 21 26 2 -3 -1 -15 -7 -28z m92 -44 c6 -29 1 -31
-24 -8 -23 21 -23 33 1 33 12 0 20 -9 23 -25z m-32 -117 c31 -33 27 -49 -10
-36 -35 12 -42 21 -34 42 8 22 19 20 44 -6z m438 4 c6 -18 -15 -14 -22 4 -4
10 -1 14 6 12 6 -2 14 -10 16 -16z m-384 -148 c11 -28 6 -34 -14 -22 -11 7
-20 18 -20 25 0 18 27 16 34 -3z m537 -27 c-8 -8 -11 -7 -11 4 0 20 13 34 18
19 3 -7 -1 -17 -7 -23z m49 -7 c-27 -21 -40 -25 -40 -12 0 9 38 30 55 31 6 0
-1 -8 -15 -19z m-687 -17 c-4 -10 -15 -29 -26 -43 -16 -21 -16 -26 -4 -28 8
-2 27 8 41 22 14 15 34 26 46 26 29 0 25 -8 -12 -24 l-33 -14 50 4 50 4 -47
-14 c-26 -8 -64 -23 -83 -35 -20 -12 -37 -21 -39 -21 -3 0 3 55 10 87 4 23 30
53 44 53 5 0 6 -8 3 -17z m-303 -25 c0 -10 5 -18 10 -18 6 0 10 -5 10 -11 0
-10 40 -67 73 -104 10 -11 28 -37 40 -57 11 -21 24 -38 29 -38 15 0 8 87 -12
145 -22 65 -24 75 -12 75 5 0 14 -18 21 -39 15 -52 43 -268 38 -295 -3 -14 -5
-11 -6 10 0 19 -13 45 -33 68 -48 56 -188 258 -188 271 0 7 7 12 15 12 8 0 15
-9 15 -19z m670 13 c0 -6 -4 -13 -10 -16 -5 -3 -10 1 -10 9 0 9 5 16 10 16 6
0 10 -4 10 -9z m70 -25 c0 -3 -4 -8 -10 -11 -5 -3 -10 -1 -10 4 0 6 5 11 10
11 6 0 10 -2 10 -4z m218 -33 c2 -15 -4 -24 -20 -29 -39 -13 -47 -13 -41 2 3
8 10 14 16 14 6 0 7 3 4 7 -9 9 14 34 27 30 6 -2 12 -13 14 -24z m-1041 -100
c-2 -16 -4 -5 -4 22 0 28 2 40 4 28 2 -13 2 -35 0 -50z m1089 52 c-11 -8 -25
-15 -32 -15 -7 0 -19 -3 -28 -6 -10 -4 -16 -1 -16 9 0 15 22 23 70 25 24 1 24
1 6 -13z m-326 -19 c0 -3 -4 -8 -10 -11 -5 -3 -10 -1 -10 4 0 6 5 11 10 11 6
0 10 -2 10 -4z m-300 -25 c-8 -5 -28 -11 -44 -15 -26 -6 -28 -5 -17 8 8 9 28
16 45 16 22 -1 27 -3 16 -9z m239 -18 c0 -5 -9 -26 -19 -48 -14 -31 -19 -35
-19 -18 -1 26 19 73 31 73 4 0 8 -3 7 -7z m53 -15 c-7 -7 -12 -8 -12 -2 0 14
12 26 19 19 2 -3 -1 -11 -7 -17z m258 11 c0 -11 -60 -69 -72 -69 -8 0 9 46 25
68 11 15 47 16 47 1z m305 -9 c-3 -5 -14 -10 -23 -9 -14 0 -13 2 3 9 27 11 27
11 20 0z m-841 -36 c4 -9 4 -19 1 -22 -7 -8 -35 19 -29 29 8 14 21 11 28 -7z
m564 4 c-3 -7 -15 -15 -28 -16 -21 -3 -22 -2 -11 12 16 19 44 21 39 4z m102
-3 c0 -8 -2 -15 -4 -15 -2 0 -6 7 -10 15 -3 8 -1 15 4 15 6 0 10 -7 10 -15z
m-416 -80 c-4 -8 -11 -12 -16 -9 -6 4 -5 10 3 15 19 12 19 11 13 -6z m276 -14
c0 -9 -62 -32 -69 -25 -9 9 42 42 56 37 7 -3 13 -8 13 -12z m-540 -43 c0 -6
-7 -5 -15 2 -8 7 -15 17 -15 22 0 6 7 5 15 -2 8 -7 15 -17 15 -22z m615 2 c3
-5 1 -10 -4 -10 -6 0 -11 5 -11 10 0 6 2 10 4 10 3 0 8 -4 11 -10z m-408 -22
c-3 -8 -6 -5 -6 6 -1 11 2 17 5 13 3 -3 4 -12 1 -19z m-769 -20 c-19 -57 -47
-88 -78 -88 -16 0 -31 -6 -33 -12 -4 -9 -6 -7 -6 3 -1 24 40 81 78 106 45 31
52 29 39 -9z m1142 22 c0 -5 -2 -10 -4 -10 -3 0 -8 5 -11 10 -3 6 -1 10 4 10
6 0 11 -4 11 -10z m-80 -14 c0 -8 2 -21 5 -28 4 -9 -7 -18 -32 -27 -21 -8 -44
-16 -52 -19 -16 -6 -7 29 17 66 16 25 62 31 62 8z m-246 -18 c-4 -7 -16 -23
-26 -35 -13 -14 -18 -28 -14 -41 4 -11 2 -23 -4 -27 -6 -4 -10 9 -10 34 0 28
6 46 22 61 24 22 43 27 32 8z m-229 -18 c3 -5 8 -18 10 -28 2 -14 -4 -18 -31
-17 -19 0 -34 3 -34 8 0 4 0 12 0 17 0 6 7 10 15 10 8 0 15 5 15 10 0 13 17
13 25 0z m542 -46 c-3 -16 0 -28 9 -31 8 -3 14 -9 14 -14 0 -16 -19 -10 -39
12 -15 17 -18 26 -10 40 15 28 32 23 26 -7z m-115 -42 c-3 -17 2 -22 20 -22
18 0 20 -2 8 -10 -8 -5 -26 -10 -40 -10 -20 0 -22 2 -10 10 9 6 10 10 3 10 -6
0 -19 -10 -27 -22 -20 -28 -32 -17 -16 14 30 56 68 75 62 30z m-425 -53 c1
-34 -1 -37 -20 -30 -45 17 -45 67 0 67 14 0 18 -9 20 -37z m223 34 c0 -16 -35
-93 -43 -93 -10 0 2 71 16 88 10 13 27 16 27 5z m288 -67 c3 -13 -1 -17 -14
-14 -11 2 -20 11 -22 22 -3 13 1 17 14 14 11 -2 20 -11 22 -22z m-111 -27 c-3
-12 0 -19 9 -19 27 0 14 -18 -18 -25 -18 -4 -41 -15 -52 -24 -18 -15 -18 -15
-11 9 16 53 25 69 42 78 23 13 36 5 30 -19z m-647 7 c0 -2 -7 -7 -16 -10 -8
-3 -12 -2 -9 4 6 10 25 14 25 6z m252 -43 c17 -15 17 -17 2 -35 -21 -22 -34
-23 -60 -3 -19 14 -18 15 6 35 30 24 29 24 52 3z m244 4 c5 -15 -50 -80 -60
-70 -7 7 3 54 17 71 13 16 36 15 43 -1z m250 -31 c8 -8 14 -22 14 -30 0 -13
-5 -12 -25 6 -13 11 -22 25 -19 30 7 11 13 10 30 -6z m196 -18 c-7 -7 -12 -8
-12 -2 0 14 12 26 19 19 2 -3 -1 -11 -7 -17z m-788 -16 c3 -5 -4 -21 -15 -38
-10 -16 -19 -37 -19 -46 0 -10 -5 -18 -11 -18 -16 0 -5 90 12 101 18 11 26 11
33 1z m803 -8 c-3 -3 -12 -4 -19 -1 -8 3 -5 6 6 6 11 1 17 -2 13 -5z m-333
-16 c-12 -19 -11 -106 2 -101 11 4 50 -34 42 -42 -3 -3 -26 -7 -52 -10 -44 -5
-47 -4 -41 16 6 18 4 20 -14 14 -25 -8 -28 16 -6 55 8 14 14 37 15 53 0 23 4
27 31 27 21 0 28 -4 23 -12z m-356 -56 c3 -28 1 -30 -25 -27 -15 2 -36 4 -45
4 -25 1 -23 36 3 62 18 18 23 19 42 6 13 -8 23 -27 25 -45z m442 29 c0 -5 3
-16 6 -25 4 -10 1 -16 -9 -16 -20 0 -30 17 -23 35 6 16 26 21 26 6z m-210 -9
c0 -5 -9 -17 -20 -27 -16 -14 -20 -15 -20 -4 0 16 19 39 32 39 4 0 8 -4 8 -8z
m-324 -67 c6 -26 32 -33 51 -14 8 8 15 8 26 -2 12 -12 11 -15 -7 -24 -12 -6
-22 -21 -24 -33 -4 -25 -12 -28 -30 -10 -9 9 -13 6 -19 -10 -11 -28 -83 -77
-83 -56 0 8 6 27 14 42 7 15 13 45 12 67 -1 30 4 43 19 52 30 17 34 15 41 -12z
m788 -28 c27 -11 2 -37 -36 -37 -26 0 -28 2 -18 15 6 8 9 19 5 25 -11 18 7 35
19 18 6 -8 19 -17 30 -21z m-479 -46 c-3 -6 -11 -11 -17 -11 -6 0 -6 6 2 15
14 17 26 13 15 -4z m185 -16 c0 -8 -4 -15 -9 -15 -5 0 -14 7 -21 15 -10 13 -9
15 9 15 12 0 21 -6 21 -15z m-103 -11 c5 -14 -55 -76 -67 -69 -16 10 -12 30
11 59 21 26 49 32 56 10z m433 -9 c0 -8 -2 -15 -4 -15 -2 0 -6 7 -10 15 -3 8
-1 15 4 15 6 0 10 -7 10 -15z m-800 -35 c0 -11 -36 -35 -67 -45 -35 -10 -27
11 14 39 35 24 53 26 53 6z m820 -2 c0 -18 -2 -20 -9 -8 -6 8 -7 18 -5 22 9
14 14 9 14 -14z m-433 6 c-3 -3 -12 -4 -19 -1 -8 3 -5 6 6 6 11 1 17 -2 13 -5z
m323 2 c0 -2 3 -11 6 -19 4 -11 -1 -13 -20 -10 -31 6 -35 33 -6 33 11 0 20 -2
20 -4z m725 -16 c3 -5 1 -10 -4 -10 -6 0 -11 5 -11 10 0 6 2 10 4 10 3 0 8 -4
11 -10z m-955 -37 c0 -7 -7 -10 -15 -7 -9 4 -15 0 -15 -10 0 -20 -14 -21 -30
-1 -17 20 -6 43 22 47 23 3 38 -7 38 -29z m-473 -15 c6 -7 13 -21 17 -32 5
-16 3 -17 -21 -11 -33 8 -46 25 -31 42 13 16 23 16 35 1z m363 -17 c5 -11 10
-22 10 -26 0 -9 -64 -34 -72 -29 -22 14 9 74 38 74 7 0 18 -9 24 -19z m-430
-46 c-14 -17 -60 -25 -60 -11 0 6 7 22 16 34 15 22 17 22 35 6 13 -12 16 -21
9 -29z m735 5 c-3 -5 -10 -10 -16 -10 -5 0 -9 5 -9 10 0 6 7 10 16 10 8 0 12
-4 9 -10z m815 -4 c0 -3 -4 -8 -10 -11 -5 -3 -10 -1 -10 4 0 6 5 11 10 11 6 0
10 -2 10 -4z m-1044 -17 c3 -6 1 -15 -6 -19 -7 -4 -10 -15 -7 -23 9 -23 -3
-27 -29 -10 -28 18 -30 26 -8 47 18 19 40 21 50 5z m326 -14 c3 -14 1 -25 -3
-25 -5 0 -9 4 -9 9 0 5 -3 16 -6 25 -3 9 -2 16 4 16 5 0 12 -11 14 -25z m-32
-7 c0 -12 -1 -19 -3 -17 -1 2 -9 12 -16 22 -12 14 -11 17 3 17 10 0 16 -8 16
-22z m-718 -16 c11 -41 -12 -54 -44 -25 -17 15 -17 18 -2 34 18 20 40 16 46
-9z m327 -23 c9 -27 8 -33 -12 -50 -12 -10 -30 -18 -39 -19 -28 0 -24 64 4 84
31 22 34 21 47 -15z m-413 -4 c6 -26 -11 -59 -26 -50 -5 3 -15 -2 -23 -10 -21
-20 -27 -19 -27 5 0 63 63 108 76 55z m744 -10 c0 -15 -26 -32 -36 -23 -2 3
-2 13 2 22 8 20 34 21 34 1z m65 -35 c3 -6 -1 -13 -10 -16 -19 -8 -30 0 -20
15 8 14 22 14 30 1z m-317 -25 c2 -1 0 -14 -3 -28 -6 -23 -9 -25 -31 -15 -25
12 -28 17 -18 42 4 12 13 15 28 10 11 -4 22 -8 24 -9z m-440 -38 c3 -44 -6
-46 -39 -11 -24 25 -24 26 -4 40 28 20 39 13 43 -29z m682 -29 c0 -10 -4 -18
-9 -18 -5 0 -16 -3 -25 -6 -11 -4 -14 2 -13 28 2 31 4 33 24 23 13 -5 23 -18
23 -27z m-340 1 c0 -18 -36 -59 -52 -59 -14 0 -9 58 7 74 19 19 45 10 45 -15z
m-413 4 c6 -16 -46 -73 -67 -73 -15 0 -12 27 5 60 17 33 52 40 62 13z m500
-64 c7 -13 9 -25 4 -27 -5 -2 -7 -12 -4 -23 5 -20 5 -20 -30 -2 -40 20 -48 48
-19 69 22 17 34 13 49 -17z m283 5 c0 -8 -4 -12 -10 -9 -5 3 -10 10 -10 16 0
5 5 9 10 9 6 0 10 -7 10 -16z m-721 -16 c5 -13 5 -24 0 -26 -5 -2 -9 -12 -9
-23 0 -22 -1 -23 -35 -7 -31 14 -32 42 -3 62 30 21 37 20 47 -6z m640 -60
c-27 -10 -29 -9 -17 22 9 24 10 25 24 5 13 -18 12 -20 -7 -27z m128 20 c-3 -8
-6 -5 -6 6 -1 11 2 17 5 13 3 -3 4 -12 1 -19z m-423 -3 c9 -26 -19 -65 -47
-65 -14 0 -15 36 -2 56 18 27 40 31 49 9z m-420 -22 c8 -20 -10 -38 -47 -47
-26 -6 -28 -5 -22 16 15 48 56 66 69 31z m786 -23 c0 -5 -5 -10 -11 -10 -5 0
-7 5 -4 10 3 6 8 10 11 10 2 0 4 -4 4 -10z m-295 -52 c1 -43 -1 -44 -33 -22
-36 25 -25 66 17 61 9 -1 15 -16 16 -39z m-414 -2 c-6 -7 -7 -26 -2 -48 9 -40
2 -41 -47 -10 -12 8 -24 13 -25 11 -1 -2 -9 -17 -17 -34 -17 -32 -60 -48 -60
-21 0 28 20 67 37 73 10 3 33 19 51 35 27 23 36 26 53 17 14 -7 17 -14 10 -23z
m639 -16 c0 -11 -7 -23 -15 -27 -21 -8 -24 -2 -14 25 10 28 29 29 29 2z m-306
-36 c-12 -36 -41 -54 -54 -35 -10 17 12 66 32 74 22 8 33 -11 22 -39z m376
-19 c0 -27 -6 -30 -29 -16 -17 11 -7 41 14 41 9 0 15 -9 15 -25z m-289 -55 c3
-19 10 -43 14 -52 10 -25 -1 -22 -41 8 -48 37 -45 87 6 81 8 -1 17 -17 21 -37z
m-433 -34 c3 -25 1 -28 -11 -18 -16 14 -28 6 -21 -13 8 -21 -35 -6 -46 16 -8
14 -5 21 12 34 34 24 62 16 66 -19z m343 14 c1 -5 2 -17 2 -25 0 -30 -3 -36
-13 -30 -5 3 -10 1 -10 -5 0 -7 -6 -10 -14 -7 -8 3 -17 1 -20 -6 -4 -7 -4 4
-1 23 6 42 52 83 56 50z m-433 -60 c4 -24 -12 -40 -42 -40 -15 0 -17 5 -11 27
11 47 47 56 53 13z m815 4 c-8 -20 -22 -17 -20 5 0 10 7 17 13 14 7 -3 10 -11
7 -19z m1092 16 c3 -5 -1 -10 -10 -10 -9 0 -13 5 -10 10 3 6 8 10 10 10 2 0 7
-4 10 -10z m35 -14 c0 -3 -4 -8 -10 -11 -5 -3 -10 -1 -10 4 0 6 5 11 10 11 6
0 10 -2 10 -4z m-1438 -45 c10 -12 13 -22 7 -28 -6 -6 -6 -21 1 -39 9 -25 8
-27 -4 -11 -7 9 -17 17 -21 17 -4 0 -16 10 -26 21 -14 16 -16 26 -8 40 12 24
30 24 51 0z m508 9 c0 -5 -5 -10 -11 -10 -5 0 -7 5 -4 10 3 6 8 10 11 10 2 0
4 -4 4 -10z m-277 -20 c3 -13 -1 -24 -13 -30 -23 -12 -30 -2 -19 28 10 27 25
28 32 2z m-672 -17 c11 -13 11 -17 2 -20 -7 -3 -13 -15 -13 -29 0 -21 -3 -23
-30 -18 -25 5 -30 3 -35 -19 -5 -18 -12 -23 -26 -20 -27 7 -24 39 6 59 14 9
25 24 25 34 0 31 49 40 71 13z m349 -26 c0 -25 -17 -47 -37 -47 -16 0 -17 24
-3 51 15 27 40 24 40 -4z m413 -9 c8 -30 -2 -37 -19 -14 -18 25 -18 36 0 36 7
0 16 -10 19 -22z m7 -102 c-7 -7 -10 4 -9 29 1 40 1 40 10 10 5 -18 5 -33 -1
-39z m-110 20 c0 -3 -4 -8 -10 -11 -5 -3 -10 -1 -10 4 0 6 5 11 10 11 6 0 10
-2 10 -4z"/>
<path d="M3564 2448 l-19 -23 23 19 c21 18 27 26 19 26 -2 0 -12 -10 -23 -22z"/>
<path d="M2682 1090 c-10 -17 -10 -20 3 -20 8 0 15 9 15 20 0 11 -1 20 -3 20
-1 0 -8 -9 -15 -20z"/>
<path d="M3180 4130 c0 -5 5 -10 11 -10 5 0 7 5 4 10 -3 6 -8 10 -11 10 -2 0
-4 -4 -4 -10z"/>
<path d="M3340 4050 c-8 -5 -10 -10 -5 -10 6 0 17 5 25 10 8 5 11 10 5 10 -5
0 -17 -5 -25 -10z"/>
<path d="M2900 4037 c0 -5 -7 -15 -16 -21 -14 -10 -13 -12 3 -12 10 0 28 -4
41 -8 19 -6 22 -4 22 17 0 18 -6 26 -25 29 -14 3 -25 1 -25 -5z"/>
<path d="M3083 4035 c-7 -8 -9 -16 -4 -19 5 -3 12 1 15 10 8 22 4 25 -11 9z"/>
<path d="M3383 4033 c-7 -2 -13 -9 -13 -15 0 -7 4 -7 13 0 6 5 21 12 32 15
l20 5 -20 0 c-11 0 -26 -2 -32 -5z"/>
<path d="M3190 4016 c0 -9 7 -12 21 -9 16 4 17 8 7 14 -19 13 -28 11 -28 -5z"/>
<path d="M3304 3955 c-9 -23 14 -45 47 -45 28 0 28 1 11 21 -27 33 -51 43 -58
24z"/>
<path d="M2705 3950 c-3 -5 1 -10 9 -10 8 0 18 5 21 10 3 6 -1 10 -9 10 -8 0
-18 -4 -21 -10z"/>
<path d="M3531 3884 c0 -11 3 -14 6 -6 3 7 2 16 -1 19 -3 4 -6 -2 -5 -13z"/>
<path d="M3382 3843 c8 -10 18 -26 21 -35 7 -20 27 -25 27 -7 0 6 8 3 17 -7
12 -12 18 -13 21 -5 6 17 -39 63 -55 57 -7 -3 -15 -1 -18 4 -4 6 -11 10 -17
10 -7 0 -5 -7 4 -17z"/>
<path d="M2847 3823 c-16 -18 -16 -22 -2 -33 12 -10 16 -9 21 3 3 9 4 23 2 33
-3 14 -5 14 -21 -3z"/>
<path d="M2910 3780 c0 -5 5 -10 11 -10 5 0 7 5 4 10 -3 6 -8 10 -11 10 -2 0
-4 -4 -4 -10z"/>
<path d="M2710 3764 c0 -8 -4 -12 -10 -9 -5 3 -10 2 -10 -3 0 -17 30 -22 36
-7 4 8 15 15 25 15 10 0 19 5 19 10 0 6 -13 10 -30 10 -21 0 -30 -5 -30 -16z"/>
<path d="M2874 3765 c-12 -31 23 -48 45 -22 8 11 5 16 -14 25 -21 10 -27 9
-31 -3z"/>
<path d="M2573 3723 c9 -2 25 -2 35 0 9 3 1 5 -18 5 -19 0 -27 -2 -17 -5z"/>
<path d="M230 3713 c0 -4 5 -15 10 -23 8 -13 10 -13 10 2 0 9 -4 20 -10 23 -5
3 -10 3 -10 -2z"/>
<path d="M2270 3710 c-13 -8 -12 -10 3 -10 9 0 17 5 17 10 0 12 -1 12 -20 0z"/>
<path d="M3530 3660 c0 -5 5 -10 11 -10 5 0 7 5 4 10 -3 6 -8 10 -11 10 -2 0
-4 -4 -4 -10z"/>
<path d="M2210 3650 c0 -5 7 -10 15 -10 8 0 15 5 15 10 0 6 -7 10 -15 10 -8 0
-15 -4 -15 -10z"/>
<path d="M3060 3579 c0 -5 5 -7 10 -4 6 3 10 8 10 11 0 2 -4 4 -10 4 -5 0 -10
-5 -10 -11z"/>
<path d="M2352 3560 c0 -14 2 -19 5 -12 2 6 2 18 0 25 -3 6 -5 1 -5 -13z"/>
<path d="M1061 3509 c-12 -36 -14 -102 -4 -202 5 -54 9 -67 22 -65 27 5 49
251 25 290 -11 18 -33 6 -43 -23z"/>
<path d="M3865 3530 c-3 -5 -1 -10 4 -10 6 0 11 5 11 10 0 6 -2 10 -4 10 -3 0
-8 -4 -11 -10z"/>
<path d="M3945 3350 c-3 -5 -1 -10 4 -10 6 0 11 5 11 10 0 6 -2 10 -4 10 -3 0
-8 -4 -11 -10z"/>
<path d="M3956 3317 c3 -10 9 -15 12 -12 3 3 0 11 -7 18 -10 9 -11 8 -5 -6z"/>
<path d="M374 3108 c-28 -29 -32 -41 -33 -91 -1 -48 3 -63 24 -91 33 -44 42
-47 145 -52 47 -2 122 -6 167 -9 l82 -6 21 40 c24 48 27 148 5 190 -17 34 -36
38 -240 46 l-140 5 -31 -32z"/>
<path d="M2399 3128 c0 -2 -2 -21 -5 -43 l-4 -40 15 34 c18 39 19 51 5 51 -5
0 -10 -1 -11 -2z"/>
<path d="M1486 2862 c-3 -5 -21 -17 -41 -26 -33 -16 -35 -20 -35 -65 0 -29 6
-53 14 -60 28 -24 40 -139 39 -391 0 -192 -4 -260 -17 -315 -10 -38 -20 -91
-23 -116 -5 -43 -9 -48 -49 -68 -77 -37 -130 -27 -192 37 -32 33 -37 44 -46
117 -3 22 -10 67 -15 100 -6 33 -16 97 -23 142 -11 68 -18 88 -44 115 -54 58
-74 90 -74 118 0 36 -36 68 -88 76 -45 7 -72 38 -86 98 -4 15 -12 34 -19 42
-7 7 -17 20 -24 27 -8 11 -56 16 -187 21 -169 7 -177 7 -202 -13 -38 -30 -80
-27 -109 8 -19 21 -36 30 -71 34 -54 6 -98 34 -102 68 -4 22 -5 21 -18 -9 -9
-23 -22 -34 -44 -38 l-30 -6 0 -158 c0 -154 0 -157 25 -180 24 -23 25 -28 25
-149 0 -69 -5 -157 -10 -196 -5 -38 -14 -191 -19 -340 -6 -148 -14 -294 -17
-324 -4 -37 -2 -51 5 -47 6 4 11 18 11 30 0 13 8 34 18 47 43 59 42 52 42 509
0 379 2 445 15 471 18 34 50 49 106 49 21 0 39 4 39 8 0 14 -23 32 -41 32 -9
0 -22 6 -28 14 -16 19 14 45 31 28 18 -18 34 -14 65 14 l27 25 9 -23 c5 -13 6
-37 3 -55 -5 -36 -3 -37 76 -48 31 -4 55 -15 72 -32 22 -22 26 -34 26 -88 0
-48 7 -79 28 -127 45 -99 47 -133 12 -207 -38 -79 -38 -108 0 -196 5 -11 11
-30 15 -41 3 -12 16 -24 28 -28 12 -3 181 1 376 10 l353 16 87 -27 c86 -27
172 -37 187 -22 5 4 2 17 -5 29 -7 11 -22 89 -32 172 -17 129 -20 191 -16 426
3 159 11 305 18 347 11 61 11 79 -2 119 -14 46 -31 65 -43 46z"/>
<path d="M2272 1700 c0 -19 2 -27 5 -17 2 9 2 25 0 35 -3 9 -5 1 -5 -18z"/>
<path d="M2211 1694 c0 -11 3 -14 6 -6 3 7 2 16 -1 19 -3 4 -6 -2 -5 -13z"/>
<path d="M1705 1650 c-10 -16 16 -163 31 -179 12 -13 22 -13 81 3 l68 17 59
-26 c32 -14 60 -24 63 -21 10 10 30 106 22 106 -5 0 -9 6 -10 13 0 6 -16 25
-34 40 -29 24 -50 30 -142 42 -130 18 -130 18 -138 5z"/>
<path d="M2268 1653 c7 -3 16 -2 19 1 4 3 -2 6 -13 5 -11 0 -14 -3 -6 -6z"/>
<path d="M2006 1111 c-41 -23 -43 -39 -6 -33 22 3 30 10 30 24 0 17 5 20 30
16 17 -3 30 -1 30 4 0 14 -54 7 -84 -11z"/>
<path d="M2080 1090 c0 -5 7 -7 15 -4 8 4 15 8 15 10 0 2 -7 4 -15 4 -8 0 -15
-4 -15 -10z"/>
<path d="M4076 1027 c3 -10 9 -15 12 -12 3 3 0 11 -7 18 -10 9 -11 8 -5 -6z"/>
<path d="M4477 163 c-10 -9 -9 -23 1 -23 5 0 9 7 9 15 0 17 -1 18 -10 8z"/>
</g>
</svg>
